<?xml version="1.0" encoding="UTF-8" standalone="no"?>
<svg
   id="Layer_1"
   version="1.1"
   viewBox="0 0 1920 1080"
   sodipodi:docname="hej-2025-04-shapes.svg"
   inkscape:version="1.2.2 (732a01da63, 2022-12-09)"
   xmlns:inkscape="http://www.inkscape.org/namespaces/inkscape"
   xmlns:sodipodi="http://sodipodi.sourceforge.net/DTD/sodipodi-0.dtd"
   xmlns="http://www.w3.org/2000/svg"
   xmlns:svg="http://www.w3.org/2000/svg">
  <defs
     id="defs537" />
  <sodipodi:namedview
     id="namedview535"
     pagecolor="#505050"
     bordercolor="#ffffff"
     borderopacity="1"
     inkscape:showpageshadow="0"
     inkscape:pageopacity="0"
     inkscape:pagecheckerboard="1"
     inkscape:deskcolor="#505050"
     showgrid="false"
     inkscape:zoom="0.78645833"
     inkscape:cx="712.05298"
     inkscape:cy="510.51656"
     inkscape:window-width="2436"
     inkscape:window-height="1411"
     inkscape:window-x="1915"
     inkscape:window-y="-9"
     inkscape:window-maximized="1"
     inkscape:current-layer="Layer_1" />
  <!-- Generator: Adobe Illustrator 29.4.0, SVG Export Plug-In . SVG Version: 2.1.0 Build 152)  -->
  <rect
     x="-801.28351"
     y="-1047.0026"
     width="681.5"
     height="1004"
     transform="scale(-1)"
     fill="#f5eedc"
     id="rect2" />
  <circle
     cx="950.18213"
     cy="341.23172"
     r="46.700001"
     fill="#c3d5d5"
     id="circle4" />
  <circle
     cx="997.22852"
     cy="198.74164"
     r="16.4"
     fill="#c3d5d5"
     id="circle6" />
  <circle
     cx="966.71191"
     cy="80.637009"
     r="16.4"
     fill="#c3d5d5"
     id="circle8" />
  <circle
     cx="1071.3231"
     cy="422.91779"
     r="5.5999999"
     id="circle10" />
  <rect
     x="-1471.9696"
     y="-949.49066"
     width="105.6"
     height="357.5"
     transform="scale(-1)"
     fill="#e97740"
     id="rect12" />
  <path
     d="m 980.91325,650.02045 c -60.8,0 -110.1,-49.3 -110.1,-110.1 h 220.29995 c 0,60.8 -49.3,110.1 -110.09995,110.1 z"
     fill="#e6a680"
     id="path14" />
  <rect
     x="-1562.7098"
     y="-336.65756"
     width="105.6"
     height="211.7"
     transform="scale(-1)"
     fill="#da5c29"
     id="rect16" />
  <circle
     cx="1287.543"
     cy="146.19528"
     r="113.9"
     fill="#6e8c80"
     id="circle18" />
  <path
     d="m 1381.6231,480.6178 h -25.6 v -31.8 c 0,-79.3 -64.3,-143.5 -143.4999,-143.5 -79.3,0 -143.5,64.3 -143.5,143.5 v 31.8 h -64.7"
     fill="none"
     stroke="#000000"
     stroke-miterlimit="10"
     stroke-width="4"
     id="path20" />
  <path
     d="m 991.62318,898.67674 c 0,-40.9 33.20002,-74.1 74.10002,-74.1 v 148.2 c -40.9,0 -74.10002,-33.2 -74.10002,-74.1 z"
     fill="#2e74a6"
     id="path22" />
  <path
     d="m 1635.996,466.37873 c 27.6,0 50,22.4 50,50 v 359 c 0,27.6 -22.4,50 -50,50 -27.6,0 -50,-22.4 -50,-50 v -359 c 0,-27.6 22.4,-50 50,-50 z"
     fill="#e7b261"
     id="path24" />
  <circle
     cx="1184.3569"
     cy="732.96155"
     r="62.099998"
     fill="#202425"
     id="circle26" />
</svg>
